<svg width="39px" height="50px" viewBox="0 0 39 50" version="1.1" xmlns="http://www.w3.org/2000/svg" xmlns:xlink="http://www.w3.org/1999/xlink">
  <g stroke="none" stroke-width="1" fill="none" fill-rule="evenodd">
    <g transform="translate(-404.000000, -367.000000)" fill="#F16322">
      <g transform="translate(404.000000, 367.000000)">
        <path d="M2.11744885,25.9804118 C1.22180993,23.7937901 0.728003099,21.399605 0.728003099,18.8899438 C0.728003099,8.56279733 9.08956871,0.190990985 19.4040826,0.190990985 C29.5440254,0.190990985 37.7965671,8.28181318 38.0730077,18.3673007 L38.1184149,18.3673952 C38.1184149,18.3673952 38.112303,18.6275027 38.0791912,19.0826141 C38.0569317,21.2903661 37.6525333,23.4064924 36.9290597,25.3678517 C36.4751419,26.8689961 35.8488428,28.4284228 34.985073,29.8432611 C31.6808168,35.2555696 19.2706955,49.2395996 19.2706955,49.2395996 C19.2706955,49.2395996 6.82358394,34.7402508 3.89583504,29.8432614 C3.13186374,28.5654334 2.55419577,27.2478971 2.11744885,25.9804118 Z" />
      </g>
    </g>
  </g>
</svg>
