<?xml version="1.0" encoding="UTF-8"?>
<svg width="240px" height="180px" viewBox="0 0 240 180" version="1.1" xmlns="http://www.w3.org/2000/svg" xmlns:xlink="http://www.w3.org/1999/xlink">
    <title>9B3F947D-6CBF-45A4-A1E6-F52D4399A2A7</title>
    <desc>Created with sketchtool.</desc>
    <defs>
        <polygon id="path-1" points="0 0.033132497 46.9653451 0.033132497 46.9653451 11.2781325 0 11.2781325"></polygon>
        <polygon id="path-3" points="0.0566560766 0.123022222 47.0220838 0.123022222 47.0220838 11.3679809 0.0566560766 11.3679809"></polygon>
    </defs>
    <g id="Layouts" stroke="none" stroke-width="1" fill="none" fill-rule="evenodd">
        <g id="XLarge-403-error" transform="translate(-520.000000, -120.000000)">
            <rect id="Rectangle-Copy" fill="#FFFFFF" x="0" y="0" width="1280" height="632"></rect>
            <g id="Illo/Empty-error-" transform="translate(532.000000, 124.000000)">
                <rect id="Background" x="0" y="0" width="216" height="173"></rect>
                <g id="Group-63" transform="translate(0.000000, 4.669553)">
                    <path d="M106.170284,30.4112091 L17.077208,30.4112091 C13.847543,30.4112091 11.2051085,27.7688769 11.2051085,24.5393369 L11.2051085,22.184718 C11.2051085,18.955178 13.847543,16.3128459 17.077208,16.3128459 L106.170284,16.3128459 C109.399949,16.3128459 112.042383,18.955178 112.042383,22.184718 L112.042383,24.5393369 C112.042383,27.7688769 109.399949,30.4112091 106.170284,30.4112091" id="Fill-1" fill="#E6EAF7"></path>
                    <path d="M113.464387,11.4456345 L77.7443943,11.4456345 C74.651977,11.4456345 72.1215732,8.91553536 72.1215732,5.82303118 C72.1215732,2.73073369 74.651977,0.200634528 77.7443943,0.200634528 L113.464387,0.200634528 C116.556804,0.200634528 119.087001,2.73073369 119.087001,5.82303118 C119.087001,8.91553536 116.556804,11.4456345 113.464387,11.4456345" id="Fill-3" fill="#E6EAF7"></path>
                    <path d="M120.147985,46.0199842 L84.4279923,46.0199842 C81.3355751,46.0199842 78.8051713,43.4898851 78.8051713,40.3973809 C78.8051713,37.3050834 81.3355751,34.7749842 84.4279923,34.7749842 L120.147985,34.7749842 C123.240402,34.7749842 125.770599,37.3050834 125.770599,40.3973809 C125.770599,43.4898851 123.240402,46.0199842 120.147985,46.0199842" id="Fill-5" fill="#E6EAF7"></path>
                    <path d="M101.384736,35.2224073 C99.6433011,35.2224073 98.2315499,34.1455495 98.2315499,32.8167358 C98.2315499,31.4881289 99.6433011,30.4112711 101.384736,30.4112711 L87.62688,30.4112711 C89.3683154,30.4112711 90.7800666,31.4881289 90.7800666,32.8167358 C90.7800666,34.1455495 89.3683154,35.2224073 87.62688,35.2224073 L101.384736,35.2224073 Z" id="Fill-7" fill="#E6EAF7"></path>
                    <path d="M105.841468,16.4678638 C104.02376,16.4678638 102.55,15.3436738 102.55,13.9567802 C102.55,12.5698865 104.02376,11.4456965 105.841468,11.4456965 L91.4804647,11.4456965 C93.2981719,11.4456965 94.7719326,12.5698865 94.7719326,13.9567802 C94.7719326,15.3436738 93.2981719,16.4678638 91.4804647,16.4678638 L105.841468,16.4678638 Z" id="Fill-9" fill="#E6EAF7"></path>
                    <path d="M19.6003361,102.865325 L108.693412,102.865325 C111.923077,102.865325 114.565511,105.507657 114.565511,108.73699 L114.565511,111.091816 C114.565511,114.321356 111.923077,116.963481 108.693412,116.963481 L19.6003361,116.963481 C16.370671,116.963481 13.7284433,114.321356 13.7284433,111.091816 L13.7284433,108.73699 C13.7284433,105.507657 16.370671,102.865325 19.6003361,102.865325" id="Fill-11" fill="#E6EAF7"></path>
                    <path d="M12.3062331,121.830796 L48.0262255,121.830796 C51.1186427,121.830796 53.6490465,124.360895 53.6490465,127.453399 C53.6490465,130.545697 51.1186427,133.075796 48.0262255,133.075796 L12.3062331,133.075796 C9.21381589,133.075796 6.68361876,130.545697 6.68361876,127.453399 C6.68361876,124.360895 9.21381589,121.830796 12.3062331,121.830796" id="Fill-13" fill="#E6EAF7"></path>
                    <g id="Group-17" transform="translate(0.000000, 87.223417)">
                        <mask id="mask-2" fill="white">
                            <use xlink:href="#path-1"></use>
                        </mask>
                        <g id="Clip-16"></g>
                        <path d="M5.62273837,0.033132497 L41.3427307,0.033132497 C44.4351479,0.033132497 46.9653451,2.56323166 46.9653451,5.65552915 C46.9653451,8.74803333 44.4351479,11.2781325 41.3427307,11.2781325 L5.62273837,11.2781325 C2.53032115,11.2781325 -8.26794236e-05,8.74803333 -8.26794236e-05,5.65552915 C-8.26794236e-05,2.56323166 2.53032115,0.033132497 5.62273837,0.033132497" id="Fill-15" fill="#E6EAF7" mask="url(#mask-2)"></path>
                    </g>
                    <path d="M24.3858833,98.0539197 C26.1273187,98.0539197 27.5390699,99.1309842 27.5390699,100.459798 C27.5390699,101.788198 26.1273187,102.865263 24.3858833,102.865263 L38.1437397,102.865263 C36.4023043,102.865263 34.9905531,101.788198 34.9905531,100.459798 C34.9905531,99.1309842 36.4023043,98.0539197 38.1437397,98.0539197 L24.3858833,98.0539197 Z" id="Fill-18" fill="#E6EAF7"></path>
                    <path d="M19.9291522,116.808649 C21.7468593,116.808649 23.2206201,117.932839 23.2206201,119.319526 C23.2206201,120.70642 21.7468593,121.830816 19.9291522,121.830816 L34.290155,121.830816 C32.4724478,121.830816 30.9986871,120.70642 30.9986871,119.319526 C30.9986871,117.932839 32.4724478,116.808649 34.290155,116.808649 L19.9291522,116.808649 Z" id="Fill-20" fill="#E6EAF7"></path>
                    <path d="M120.985279,50.2844859 L210.078355,50.2844859 C213.30802,50.2844859 215.950454,52.926818 215.950454,56.1563581 L215.950454,58.5109769 C215.950454,61.740517 213.30802,64.3826424 210.078355,64.3826424 L120.985279,64.3826424 C117.755821,64.3826424 115.113386,61.740517 115.113386,58.5109769 L115.113386,56.1563581 C115.113386,52.926818 117.755821,50.2844859 120.985279,50.2844859" id="Fill-22" fill="#E6EAF7"></path>
                    <path d="M113.69128,69.2499571 L149.411272,69.2499571 C152.503689,69.2499571 155.034093,71.7800563 155.034093,74.8725605 C155.034093,77.9648579 152.503689,80.4949571 149.411272,80.4949571 L113.69128,80.4949571 C110.598656,80.4949571 108.068459,77.9648579 108.068459,74.8725605 C108.068459,71.7800563 110.598656,69.2499571 113.69128,69.2499571" id="Fill-24" fill="#E6EAF7"></path>
                    <path d="M107.007682,34.6757108 L142.727674,34.6757108 C145.820091,34.6757108 148.350495,37.2058099 148.350495,40.2983141 C148.350495,43.3906116 145.820091,45.9207108 142.727674,45.9207108 L107.007682,45.9207108 C103.915264,45.9207108 101.385067,43.3906116 101.385067,40.2983141 C101.385067,37.2058099 103.915264,34.6757108 107.007682,34.6757108" id="Fill-26" fill="#E6EAF7"></path>
                    <path d="M125.770826,45.4731637 C127.512469,45.4731637 128.92422,46.5502282 128.92422,47.8788351 C128.92422,49.2074421 127.512469,50.2845066 125.770826,50.2845066 L139.52889,50.2845066 C137.787247,50.2845066 136.375703,49.2074421 136.375703,47.8788351 C136.375703,46.5502282 137.787247,45.4731637 139.52889,45.4731637 L125.770826,45.4731637 Z" id="Fill-28" fill="#E6EAF7"></path>
                    <path d="M121.314095,64.2277072 C123.132009,64.2277072 124.60577,65.3518971 124.60577,66.7387908 C124.60577,68.1256845 123.132009,69.2498744 121.314095,69.2498744 L135.675305,69.2498744 C133.857391,69.2498744 132.383837,68.1256845 132.383837,66.7387908 C132.383837,65.3518971 133.857391,64.2277072 135.675305,64.2277072 L121.314095,64.2277072 Z" id="Fill-30" fill="#E6EAF7"></path>
                    <path d="M185.959671,152.637383 L96.8663885,152.637383 C93.6369301,152.637383 90.9944957,149.995051 90.9944957,146.765511 L90.9944957,144.410892 C90.9944957,141.181352 93.6369301,138.53902 96.8663885,138.53902 L185.959671,138.53902 C189.189129,138.53902 191.831564,141.181352 191.831564,144.410892 L191.831564,146.765511 C191.831564,149.995051 189.189129,152.637383 185.959671,152.637383" id="Fill-32" fill="#E6EAF7"></path>
                    <path d="M193.25367,133.671912 L157.533678,133.671912 C154.441261,133.671912 151.910857,131.141813 151.910857,128.049309 C151.910857,124.957011 154.441261,122.426912 157.533678,122.426912 L193.25367,122.426912 C196.346294,122.426912 198.876491,124.957011 198.876491,128.049309 C198.876491,131.141813 196.346294,133.671912 193.25367,133.671912" id="Fill-34" fill="#E6EAF7"></path>
                    <g id="Group-38" transform="translate(158.537799, 156.878136)">
                        <mask id="mask-4" fill="white">
                            <use xlink:href="#path-3"></use>
                        </mask>
                        <g id="Clip-37"></g>
                        <path d="M41.3994695,11.3680222 L5.67947713,11.3680222 C2.5870599,11.3680222 0.0566560766,8.83792306 0.0566560766,5.74541888 C0.0566560766,2.65312139 2.5870599,0.123022222 5.67947713,0.123022222 L41.3994695,0.123022222 C44.4918867,0.123022222 47.0220838,2.65312139 47.0220838,5.74541888 C47.0220838,8.83792306 44.4918867,11.3680222 41.3994695,11.3680222" id="Fill-36" fill="#E6EAF7" mask="url(#mask-4)"></path>
                    </g>
                    <path d="M181.174124,157.448581 C179.432482,157.448581 178.020937,156.371517 178.020937,155.04291 C178.020937,153.71451 179.432482,152.637445 181.174124,152.637445 L167.41606,152.637445 C169.157703,152.637445 170.569454,153.71451 170.569454,155.04291 C170.569454,156.371517 169.157703,157.448581 167.41606,157.448581 L181.174124,157.448581 Z" id="Fill-39" fill="#E6EAF7"></path>
                    <path d="M185.630855,138.694038 C183.812941,138.694038 182.339387,137.569848 182.339387,136.182954 C182.339387,134.796267 183.812941,133.671871 185.630855,133.671871 L171.269645,133.671871 C173.087559,133.671871 174.561113,134.796267 174.561113,136.182954 C174.561113,137.569848 173.087559,138.694038 171.269645,138.694038 L185.630855,138.694038 Z" id="Fill-41" fill="#E6EAF7"></path>
                    <path d="M111.385288,64.9142919 L22.2922128,64.9142919 C19.0625478,64.9142919 16.4201133,62.2719597 16.4201133,59.0424197 L16.4201133,56.6878008 C16.4201133,53.4582608 19.0625478,50.8161354 22.2922128,50.8161354 L111.385288,50.8161354 C114.614953,50.8161354 117.257181,53.4582608 117.257181,56.6878008 L117.257181,59.0424197 C117.257181,62.2719597 114.614953,64.9142919 111.385288,64.9142919" id="Fill-43" fill="#E6EAF7"></path>
                    <path d="M118.679288,45.9487173 L82.9592957,45.9487173 C79.8668785,45.9487173 77.3366813,43.4186182 77.3366813,40.326114 C77.3366813,37.2338165 79.8668785,34.7037173 82.9592957,34.7037173 L118.679288,34.7037173 C121.771912,34.7037173 124.302109,37.2338165 124.302109,40.326114 C124.302109,43.4186182 121.771912,45.9487173 118.679288,45.9487173" id="Fill-45" fill="#E6EAF7"></path>
                    <path d="M125.362886,80.523067 L89.6428938,80.523067 C86.5504766,80.523067 84.0202794,77.9929679 84.0202794,74.9004637 C84.0202794,71.8081662 86.5504766,69.278067 89.6428938,69.278067 L125.362886,69.278067 C128.45551,69.278067 130.9855,71.8081662 130.9855,74.9004637 C130.9855,77.9929679 128.45551,80.523067 125.362886,80.523067" id="Fill-47" fill="#E6EAF7"></path>
                    <path d="M106.599741,69.7255934 C104.858306,69.7255934 103.446555,68.6485289 103.446555,67.319922 C103.446555,65.9913151 104.858306,64.9142505 106.599741,64.9142505 L92.8418848,64.9142505 C94.5833202,64.9142505 95.9950714,65.9913151 95.9950714,67.319922 C95.9950714,68.6485289 94.5833202,69.7255934 92.8418848,69.7255934 L106.599741,69.7255934 Z" id="Fill-49" fill="#E6EAF7"></path>
                    <path d="M111.056472,50.9709673 C109.238765,50.9709673 107.765004,49.8467773 107.765004,48.4598836 C107.765004,47.07299 109.238765,45.9488 111.056472,45.9488 L96.6954695,45.9488 C98.5131767,45.9488 99.9869374,47.07299 99.9869374,48.4598836 C99.9869374,49.8467773 98.5131767,50.9709673 96.6954695,50.9709673 L111.056472,50.9709673 Z" id="Fill-51" fill="#E6EAF7"></path>
                    <path d="M77.5395146,93.3654337 L166.632797,93.3654337 C169.862255,93.3654337 172.50469,96.0077658 172.50469,99.2373059 L172.50469,101.591925 C172.50469,104.821465 169.862255,107.463797 166.632797,107.463797 L77.5395146,107.463797 C74.3098496,107.463797 71.6676218,104.821465 71.6676218,101.591925 L71.6676218,99.2373059 C71.6676218,96.0077658 74.3098496,93.3654337 77.5395146,93.3654337" id="Fill-53" fill="#E6EAF7"></path>
                    <path d="M70.2454117,112.330905 L105.965404,112.330905 C109.057821,112.330905 111.588225,114.861004 111.588225,117.953508 C111.588225,121.045806 109.057821,123.575905 105.965404,123.575905 L70.2454117,123.575905 C67.1529944,123.575905 64.6225906,121.045806 64.6225906,117.953508 C64.6225906,114.861004 67.1529944,112.330905 70.2454117,112.330905" id="Fill-55" fill="#E6EAF7"></path>
                    <path d="M63.5619169,77.7567619 L99.2819093,77.7567619 C102.374327,77.7567619 104.904524,80.2868611 104.904524,83.3791585 L104.904524,83.3793652 C104.904524,86.4716627 102.374327,89.0017619 99.2819093,89.0017619 L63.5619169,89.0017619 C60.4694997,89.0017619 57.9390959,86.4716627 57.9390959,83.3793652 L57.9390959,83.3791585 C57.9390959,80.2868611 60.4694997,77.7567619 63.5619169,77.7567619" id="Fill-57" fill="#E6EAF7"></path>
                    <path d="M82.3250618,88.5542148 C84.0664972,88.5542148 85.4782484,89.6312793 85.4782484,90.9598863 C85.4782484,92.2882865 84.0664972,93.365351 82.3250618,93.365351 L96.0829183,93.365351 C94.3414829,93.365351 92.9297317,92.2882865 92.9297317,90.9598863 C92.9297317,89.6312793 94.3414829,88.5542148 96.0829183,88.5542148 L82.3250618,88.5542148 Z" id="Fill-59" fill="#E6EAF7"></path>
                    <path d="M77.8683307,107.308758 C79.6860379,107.308758 81.1597987,108.432948 81.1597987,109.819842 C81.1597987,111.206736 79.6860379,112.330926 77.8683307,112.330926 L92.2293336,112.330926 C90.4116264,112.330926 88.9378656,111.206736 88.9378656,109.819842 C88.9378656,108.432948 90.4116264,107.308758 92.2293336,107.308758 L77.8683307,107.308758 Z" id="Fill-61" fill="#E6EAF7"></path>
                </g>
                <polygon id="Fill-64" fill="#F1A882" points="174.966697 27.2872673 171.724423 28.1483401 173.013396 25.0512888 171.192588 22.2338897 174.536351 22.5025875 176.653151 19.9003533 177.430957 23.1633772 180.560167 24.372517 177.696978 26.1202924 177.513843 29.4699196"></polygon>
                <polygon id="Fill-65" fill="#8CA1D8" points="105.550002 3.07204182 106.790193 3.07204182 106.790193 -0.000206690562 105.550002 -0.000206690562"></polygon>
                <polygon id="Fill-66" fill="#8CA1D8" points="105.550002 9.29425448 106.790193 9.29425448 106.790193 6.22221266 105.550002 6.22221266"></polygon>
                <polygon id="Fill-67" fill="#8CA1D8" points="101.504084 5.24745998 104.576245 5.24745998 104.576245 4.00731661 101.504084 4.00731661"></polygon>
                <polygon id="Fill-68" fill="#8CA1D8" points="107.726331 5.24745998 110.798492 5.24745998 110.798492 4.00731661 107.726331 4.00731661"></polygon>
                <polygon id="Fill-69" fill="#F1A882" points="37.4366653 46.7815769 35.3864222 49.4365172 34.5261428 46.1943691 31.367582 45.0650118 34.1852968 43.2448947 34.2834787 39.8919605 36.8851935 42.0092986 40.1045236 41.0665829 38.8945102 44.1952579 40.7860088 46.9655315"></polygon>
                <g id="sprinkle" transform="translate(27.490909, 143.856631)" fill="#F1A882">
                    <polygon id="Fill-70" points="4.13107751 3.14500358 5.3712689 3.14500358 5.3712689 0.0729617682 4.13107751 0.0729617682"></polygon>
                    <polygon id="Fill-71" points="4.13107751 9.36721625 5.3712689 9.36721625 5.3712689 6.29517443 4.13107751 6.29517443"></polygon>
                    <polygon id="Fill-72" points="0.08495311 5.32062843 3.15711388 5.32062843 3.15711388 4.08048507 0.08495311 4.08048507"></polygon>
                    <polygon id="Fill-73" points="6.3074067 5.32062843 9.37956746 5.32062843 9.37956746 4.08048507 6.3074067 4.08048507"></polygon>
                </g>
                <polygon id="Fill-74" fill="#919FD5" points="129.075792 166.192006 125.833725 167.053078 127.12249 163.956027 125.301683 161.138835 128.645445 161.407326 130.762245 158.805298 131.540259 162.068116 134.669262 163.277255 131.806073 165.025237 131.623145 168.374658"></polygon>
                <path d="M127.641407,19.8593252 C126.237097,19.8593252 125.094467,21.0019106 125.094467,22.4061663 C125.094467,23.8106287 126.237097,24.9532141 127.641407,24.9532141 C129.045924,24.9532141 130.188347,23.8106287 130.188347,22.4061663 C130.188347,21.0019106 129.045924,19.8593252 127.641407,19.8593252 M127.641407,26.6067386 C125.32535,26.6067386 123.440879,24.7223407 123.440879,22.4061663 C123.440879,20.0901986 125.32535,18.2058007 127.641407,18.2058007 C129.957671,18.2058007 131.841935,20.0901986 131.841935,22.4061663 C131.841935,24.7223407 129.957671,26.6067386 127.641407,26.6067386" id="Fill-75" fill="#CAD4EF"></path>
                <path d="M189.764619,80.9616231 C188.360103,80.9616231 187.21768,82.1042085 187.21768,83.5086708 C187.21768,84.9129265 188.360103,86.0555119 189.764619,86.0555119 C191.169136,86.0555119 192.311559,84.9129265 192.311559,83.5086708 C192.311559,82.1042085 191.169136,80.9616231 189.764619,80.9616231 M189.764619,87.7090364 C187.448355,87.7090364 185.564091,85.8246386 185.564091,83.5086708 C185.564091,81.1924964 187.448355,79.3080986 189.764619,79.3080986 C192.080883,79.3080986 193.965148,81.1924964 193.965148,83.5086708 C193.965148,85.8246386 192.080883,87.7090364 189.764619,87.7090364" id="Fill-77" fill="#CAD4EF"></path>
                <g id="sprinkle" transform="translate(152.956938, 85.156511)" fill="#FFAA81">
                    <polygon id="Fill-79" points="4.05625263 3.21155795 5.29644402 3.21155795 5.29644402 0.139516129 4.05625263 0.139516129"></polygon>
                    <polygon id="Fill-81" points="4.05625263 9.43377061 5.29644402 9.43377061 5.29644402 6.36172879 4.05625263 6.36172879"></polygon>
                    <polygon id="Fill-82" points="0.0101282294 5.3871828 3.0820823 5.3871828 3.0820823 4.14703943 0.0101282294 4.14703943"></polygon>
                    <polygon id="Fill-83" points="6.23237512 5.3871828 9.30453589 5.3871828 9.30453589 4.14703943 6.23237512 4.14703943"></polygon>
                </g>
                <polygon id="Fill-84" fill="#8CA1D8" points="40.6303234 79.3865376 41.8705148 79.3865376 41.8705148 76.3144958 40.6303234 76.3144958"></polygon>
                <polygon id="Fill-85" fill="#8CA1D8" points="40.6303234 85.6087503 41.8705148 85.6087503 41.8705148 82.5367085 40.6303234 82.5367085"></polygon>
                <polygon id="Fill-86" fill="#8CA1D8" points="36.584199 81.5619558 39.6563598 81.5619558 39.6563598 80.3218124 36.584199 80.3218124"></polygon>
                <polygon id="Fill-87" fill="#8CA1D8" points="42.8064459 81.5619558 45.8786067 81.5619558 45.8786067 80.3218124 42.8064459 80.3218124"></polygon>
                <polygon id="Fill-88" fill="#919FD5" points="61.1704559 13.0947565 57.9281822 13.9558294 59.2169478 10.858778 57.3963468 8.04158566 60.7399028 8.3100767 62.8569095 5.70804922 63.6347162 8.97086643 66.763719 10.1800062 63.9005305 11.9279883 63.7176023 15.2774088"></polygon>
                <polygon id="Fill-89" fill="#8CA1D8" points="157.225263 46.0227539 158.465455 46.0227539 158.465455 42.9507121 157.225263 42.9507121"></polygon>
                <polygon id="Fill-90" fill="#8CA1D8" points="157.225263 52.2449665 158.465455 52.2449665 158.465455 49.1729247 157.225263 49.1729247"></polygon>
                <polygon id="Fill-91" fill="#8CA1D8" points="153.179345 48.198172 156.2513 48.198172 156.2513 46.9580287 153.179345 46.9580287"></polygon>
                <polygon id="Fill-92" fill="#8CA1D8" points="159.401799 48.198172 162.473753 48.198172 162.473753 46.9580287 159.401799 46.9580287"></polygon>
                <path d="M117.308897,66.2070587 C117.080702,66.2070587 116.8955,66.0218639 116.8955,65.7936775 C116.8955,64.9603012 116.896947,64.1333323 116.898394,63.3140109 C116.919891,50.4041184 116.9387,39.2548161 111.38967,33.6964935 C108.782375,31.0849583 105.068415,29.8152582 100.035718,29.8152582 C94.7952896,29.8152582 90.9719862,31.0975664 88.3477412,33.7353514 C83.0450963,39.0652809 83.0992513,49.5426321 83.161881,61.6745413 C83.1689087,63.0265043 83.1759365,64.4009965 83.1759365,65.7936775 C83.1759365,66.0218639 82.9909412,66.2070587 82.7625393,66.2070587 C82.5343441,66.2070587 82.3491422,66.0218639 82.3491422,65.7936775 C82.3491422,64.4024434 82.3421144,63.029398 82.3350867,61.6786751 C82.2714235,49.3626047 82.2166484,38.725895 87.7615441,33.152484 C90.549081,30.3505867 94.5639939,28.9884959 100.035718,28.9884959 C105.299091,28.9884959 109.204453,30.3375652 111.974834,33.112386 C117.766114,38.9131566 117.747098,50.2216106 117.725188,63.315251 C117.723741,64.1343657 117.722294,64.9607146 117.722294,65.7936775 C117.722294,66.0218639 117.537092,66.2070587 117.308897,66.2070587" id="Fill-94" fill="#0022AA"></path>
                <polygon id="Fill-96" fill="#CCD3EE" points="67.1171736 137.31163 67.1171736 55.4278565 76.4535411 55.4278565 76.4535411 64.3630895 73.0248253 142.764127 71.3617286 138.819437"></polygon>
                <path d="M67.5305707,137.019762 L71.5002167,138.429805 C71.6095602,138.468869 71.6976138,138.551752 71.7426741,138.658818 L72.6920406,140.910712 L76.040764,64.3450867 L76.0403506,55.841217 L67.5305707,55.841217 L67.5305707,137.019762 Z M73.0246186,143.177487 C72.8607066,143.177487 72.7091966,143.079929 72.6438798,142.924704 L71.0516808,139.148054 L66.9788922,137.701221 C66.8139468,137.642727 66.7037765,137.486676 66.7037765,137.311609 L66.7037765,55.4278358 C66.7037765,55.1996495 66.8889784,55.0144547 67.1171736,55.0144547 L76.4537478,55.0144547 C76.681943,55.0144547 76.8671449,55.1996495 76.8671449,55.4278358 L76.8671449,64.3632755 L73.437809,142.782088 C73.4293344,142.975137 73.2879525,143.136976 73.0977899,143.17108 C73.0731927,143.17542 73.0488023,143.177487 73.0246186,143.177487 Z" id="Fill-98" fill="#0022AA"></path>
                <path d="M100.650295,160.25207 C100.4221,160.25207 100.236898,160.066876 100.236898,159.838689 L100.236898,142.970879 C100.236898,142.742486 100.4221,142.557498 100.650295,142.557498 C100.87849,142.557498 101.063692,142.742486 101.063692,142.970879 L101.063692,159.838689 C101.063692,160.066876 100.87849,160.25207 100.650295,160.25207" id="Fill-100" fill="#0022AA"></path>
                <path d="M114.219725,159.564183 C113.99153,159.564183 113.806328,159.378989 113.806328,159.150802 L113.806328,143.21682 C113.806328,142.988634 113.99153,142.803439 114.219725,142.803439 C114.44792,142.803439 114.633122,142.988634 114.633122,143.21682 L114.633122,159.150802 C114.633122,159.378989 114.44792,159.564183 114.219725,159.564183" id="Fill-102" fill="#0022AA"></path>
                <polygon id="Fill-104" fill="#FFFFFF" points="73.0247426 142.764065 141.845443 142.764065 141.845443 64.3632342 73.0247426 64.3632342"></polygon>
                <path d="M73.4381397,142.350683 L141.432046,142.350683 L141.432046,64.7766153 L73.4381397,64.7766153 L73.4381397,142.350683 Z M141.845443,143.177446 L73.0247426,143.177446 C72.7963407,143.177446 72.6113455,142.992458 72.6113455,142.764065 L72.6113455,64.3632342 C72.6113455,64.1348411 72.7963407,63.949853 73.0247426,63.949853 L141.845443,63.949853 C142.073845,63.949853 142.25884,64.1348411 142.25884,64.3632342 L142.25884,142.764065 C142.25884,142.992458 142.073845,143.177446 141.845443,143.177446 Z" id="Fill-106" fill="#0022AA"></path>
                <polygon id="Fill-107" fill="#FFFFFF" points="141.845484 64.3631928 126.304233 58.1343661 135.414265 55.4279599 67.1171322 55.4279599 76.4537064 58.5148834 73.0247839 64.3631928"></polygon>
                <path d="M73.7463686,63.9498117 L139.703054,63.9498117 L126.150449,58.5179838 C125.987157,58.4526695 125.883188,58.2910375 125.891249,58.1151438 C125.89931,57.9394569 126.017955,57.7881594 126.186621,57.7381403 L132.571333,55.841341 L69.6843284,55.841341 L76.5835131,58.122378 C76.7019514,58.1614425 76.7964126,58.2521797 76.8406461,58.3689599 C76.8846729,58.48574 76.8735112,58.6161618 76.8102614,58.7238476 L73.7463686,63.9498117 Z M141.845484,64.776574 L73.0247839,64.776574 C72.8765811,64.776574 72.7397466,64.6972048 72.6659552,64.5686432 C72.5923705,64.4400817 72.5931973,64.2819634 72.6680222,64.154022 L75.8385715,58.7467902 L66.9873256,55.8202585 C66.7946825,55.7565978 66.6766576,55.5625154 66.7091093,55.3622323 C66.7413543,55.1617424 66.9141543,55.0145787 67.1171322,55.0145787 L135.414265,55.0145787 C135.619517,55.0145787 135.793764,55.1652562 135.823322,55.368433 C135.85288,55.5716098 135.728654,55.7656922 135.531877,55.8241857 L127.560547,58.1924461 L141.999268,63.9795751 C142.18323,64.053157 142.288853,64.2470327 142.25144,64.4415286 C142.213821,64.6360244 142.043502,64.776574 141.845484,64.776574 Z" id="Fill-108" fill="#0022AA"></path>
                <polygon id="Fill-109" fill="#FFFFFF" points="135.414203 55.4278772 126.304377 58.1342834 135.414203 61.7960134"></polygon>
                <path d="M127.558645,58.1929628 L135.000827,61.1841886 L135.000827,55.9819939 L127.558645,58.1929628 Z M135.414224,62.2093738 C135.362136,62.2093738 135.309841,62.1994527 135.260027,62.1794037 L126.150201,58.5178804 C125.986909,58.4523595 125.883353,58.2907275 125.891414,58.1150405 C125.899682,57.9393535 126.018121,57.7882627 126.18658,57.7380369 L135.296612,55.0316307 C135.421252,54.9944264 135.556846,55.0186092 135.661435,55.0965315 C135.766025,55.1744539 135.827621,55.2974348 135.827621,55.4278565 L135.827621,61.7959927 C135.827621,61.9332352 135.759411,62.0615901 135.645726,62.138479 C135.576276,62.185191 135.495456,62.2093738 135.414224,62.2093738 Z" id="Fill-110" fill="#204DB7"></path>
                <path d="M157.224746,108.992811 C157.209244,108.992811 157.193535,108.991984 157.177619,108.990124 C150.068635,108.187338 146.220115,104.915013 144.24325,102.311745 C142.148567,99.552633 141.499946,96.6910022 141.500773,95.9607644 C141.50098,95.732578 141.685975,95.5477967 141.91417,95.5477967 L141.914584,95.5477967 C142.142779,95.5480033 142.327774,95.7334048 142.327567,95.9615912 C142.327154,96.3433486 142.80008,99.0437608 144.901791,101.811761 C146.780888,104.286467 150.451855,107.3984 157.270633,108.168736 C157.497382,108.194365 157.660467,108.398989 157.634836,108.625935 C157.611066,108.836966 157.432272,108.992811 157.224746,108.992811" id="Fill-111" fill="#0022AA"></path>
                <path d="M58.9614683,118.69375 C58.836209,118.69375 58.7123966,118.637117 58.631164,118.529224 C58.4937095,118.346923 58.5298817,118.087733 58.7121899,117.950284 C69.4518339,109.849461 70.3057056,99.9570437 70.3057056,99.8634129 C70.3052922,99.6352265 70.4902875,99.4500318 70.7184827,99.4498251 L70.7191028,99.4498251 C70.9470913,99.4498251 71.1320865,99.6343998 71.1324999,99.8627928 C71.13312,100.348309 70.7689171,103.090473 69.0764693,106.690609 C67.5884463,109.855455 64.6688291,114.492971 59.2101267,118.610454 C59.1355085,118.666673 59.048075,118.69375 58.9614683,118.69375" id="Fill-112" fill="#204DB7"></path>
                <path d="M123.756528,74.5214139 C123.528333,74.5214139 123.343131,74.3362191 123.343131,74.1080327 C123.343131,73.2748631 123.344578,72.4481008 123.346025,71.6287795 C123.367522,58.7186803 123.386331,47.5691713 117.837095,42.0110554 C115.229799,39.3993135 111.515839,38.1296134 106.483349,38.1296134 C101.242714,38.1296134 97.4194105,39.4119216 94.7951656,42.0499133 C89.4925206,47.3798428 89.5466756,57.857194 89.6093053,69.9891032 C89.616333,71.3410662 89.6233608,72.7153517 89.6233608,74.1080327 C89.6233608,74.3362191 89.4383656,74.5214139 89.2099636,74.5214139 C88.9817684,74.5214139 88.7965665,74.3362191 88.7965665,74.1080327 C88.7965665,72.7167986 88.7895388,71.3439599 88.782511,69.9934437 C88.7188478,57.6769599 88.6640727,47.0402502 94.2089684,41.4668392 C96.9965053,38.6649419 101.011418,37.3028511 106.483349,37.3028511 C111.746515,37.3028511 115.651878,38.6519204 118.422258,41.4267412 C124.213745,47.2277185 124.194729,58.5361725 124.172819,71.6302263 C124.171372,72.4491343 124.169925,73.2752765 124.169925,74.1080327 C124.169925,74.3362191 123.984723,74.5214139 123.756528,74.5214139" id="Fill-113" fill="#0022AA"></path>
                <path d="M89.1825554,74.5588455 C88.5537784,74.5588455 88.0424061,75.070198 88.0424061,75.6989507 C88.0424061,76.3274967 88.5537784,76.8390558 89.1825554,76.8390558 C89.8113324,76.8390558 90.3227047,76.3274967 90.3227047,75.6989507 C90.3227047,75.070198 89.8113324,74.5588455 89.1825554,74.5588455 M89.1825554,77.665818 C88.098008,77.665818 87.2156119,76.783456 87.2156119,75.6989507 C87.2156119,74.6144453 88.098008,73.7320833 89.1825554,73.7320833 C90.2671028,73.7320833 91.1494989,74.6144453 91.1494989,75.6989507 C91.1494989,76.783456 90.2671028,77.665818 89.1825554,77.665818" id="Fill-114" fill="#0022AA"></path>
                <path d="M123.761985,74.5588455 C123.133415,74.5588455 122.621836,75.070198 122.621836,75.6989507 C122.621836,76.3274967 123.133415,76.8390558 123.761985,76.8390558 C124.390555,76.8390558 124.902134,76.3274967 124.902134,75.6989507 C124.902134,75.070198 124.390555,74.5588455 123.761985,74.5588455 M123.761985,77.665818 C122.677438,77.665818 121.795042,76.783456 121.795042,75.6989507 C121.795042,74.6144453 122.677438,73.7320833 123.761985,73.7320833 C124.846532,73.7320833 125.728929,74.6144453 125.728929,75.6989507 C125.728929,76.783456 124.846532,77.665818 123.761985,77.665818" id="Fill-115" fill="#0022AA"></path>
                <path d="M63.1762794,110.326006 C62.9480842,110.326006 62.7628823,110.140812 62.7628823,109.912625 L62.7628823,99.0611642 C62.7628823,98.8329778 62.9480842,98.647783 63.1762794,98.647783 C63.4044746,98.647783 63.5896766,98.8329778 63.5896766,99.0611642 L63.5896766,109.912625 C63.5896766,110.140812 63.4044746,110.326006 63.1762794,110.326006" id="Fill-116" fill="#0022AA"></path>
                <path d="M63.1762794,119.724764 C62.9480842,119.724764 62.7628823,119.539569 62.7628823,119.311383 L62.7628823,115.374961 C62.7628823,115.146774 62.9480842,114.96158 63.1762794,114.96158 C63.4044746,114.96158 63.5896766,115.146774 63.5896766,115.374961 L63.5896766,119.311383 C63.5896766,119.539569 63.4044746,119.724764 63.1762794,119.724764" id="Fill-117" fill="#637AAB"></path>
                <path d="M63.1762794,96.2276432 C62.9480842,96.2276432 62.7628823,96.0424485 62.7628823,95.8142621 L62.7628823,73.3215751 C62.7628823,73.0931821 62.9480842,72.908194 63.1762794,72.908194 C63.4044746,72.908194 63.5896766,73.0931821 63.5896766,73.3215751 L63.5896766,95.8142621 C63.5896766,96.0424485 63.4044746,96.2276432 63.1762794,96.2276432" id="Fill-118" fill="#0022AA"></path>
                <path d="M138.076253,127.48616 C137.848058,127.48616 137.662856,127.300965 137.662856,127.072778 L137.662856,116.221317 C137.662856,115.993131 137.848058,115.807936 138.076253,115.807936 C138.304449,115.807936 138.489651,115.993131 138.489651,116.221317 L138.489651,127.072778 C138.489651,127.300965 138.304449,127.48616 138.076253,127.48616" id="Fill-119" fill="#0022AA"></path>
                <path d="M134.493961,139.158534 L123.642079,139.158534 C123.413884,139.158534 123.228682,138.973339 123.228682,138.745153 C123.228682,138.516966 123.413884,138.331771 123.642079,138.331771 L134.493961,138.331771 C134.722156,138.331771 134.907358,138.516966 134.907358,138.745153 C134.907358,138.973339 134.722156,139.158534 134.493961,139.158534" id="Fill-120" fill="#0022AA"></path>
                <path d="M138.076253,136.884938 C137.848058,136.884938 137.662856,136.699743 137.662856,136.471556 L137.662856,132.535135 C137.662856,132.306948 137.848058,132.121754 138.076253,132.121754 C138.304449,132.121754 138.489651,132.306948 138.489651,132.535135 L138.489651,136.471556 C138.489651,136.699743 138.304449,136.884938 138.076253,136.884938" id="Fill-121" fill="#0022AA"></path>
                <path d="M102.549421,117.419296 C102.325566,117.419296 102.141398,117.240508 102.13623,117.015422 C102.101712,115.492733 102.662072,114.047759 103.714374,112.946305 C104.766676,111.845265 106.184629,111.219819 107.707584,111.185302 C110.848988,111.1111 113.466412,113.612882 113.53793,116.756026 C113.543097,116.984419 113.362236,117.173747 113.134248,117.178708 C113.13094,117.178915 113.127633,117.178915 113.124533,117.178915 C112.900678,117.178915 112.71651,117.000127 112.711549,116.775041 C112.650366,114.087444 110.418229,111.956671 107.726186,112.011651 C106.424399,112.041207 105.211698,112.576123 104.312146,113.517598 C103.412387,114.45928 102.93326,115.694463 102.962818,116.996407 C102.967985,117.2248 102.787331,117.414129 102.558929,117.419089 C102.555829,117.419296 102.552728,117.419296 102.549421,117.419296" id="Fill-122" fill="#0022AA"></path>
                <path d="M95.5200574,98.3613719 C95.5200574,99.2193444 94.8245167,99.9150649 93.966511,99.9150649 C93.1085053,99.9150649 92.4129646,99.2193444 92.4129646,98.3613719 C92.4129646,97.5036061 93.1085053,96.8078857 93.966511,96.8078857 C94.8245167,96.8078857 95.5200574,97.5036061 95.5200574,98.3613719" id="Fill-123" fill="#0022AA"></path>
                <path d="M123.25977,97.3753546 C123.25977,98.2333271 122.564229,98.9288409 121.706223,98.9288409 C120.848217,98.9288409 120.152883,98.2333271 120.152883,97.3753546 C120.152883,96.5175888 120.848217,95.8218683 121.706223,95.8218683 C122.564229,95.8218683 123.25977,96.5175888 123.25977,97.3753546" id="Fill-124" fill="#0022AA"></path>
                <path d="M91.3618611,109.232613 C91.3618611,110.852654 90.4081539,112.165759 89.2316256,112.165759 C88.0548907,112.165759 87.1011835,110.852654 87.1011835,109.232613 C87.1011835,107.612573 88.0548907,106.299468 89.2316256,106.299468 C90.4081539,106.299468 91.3618611,107.612573 91.3618611,109.232613" id="Fill-125" fill="#E35205"></path>
                <path d="M128.571551,108.451654 C128.571551,110.071694 127.617843,111.3848 126.441109,111.3848 C125.264787,111.3848 124.31108,110.071694 124.31108,108.451654 C124.31108,106.831613 125.264787,105.518508 126.441109,105.518508 C127.617843,105.518508 128.571551,106.831613 128.571551,108.451654" id="Fill-126" fill="#E35205"></path>
                <path d="M120.652019,101.821207 C120.652019,102.385885 120.194182,102.843705 119.629481,102.843705 C119.064574,102.843705 118.606737,102.385885 118.606737,101.821207 C118.606737,101.256528 119.629481,99.4380644 119.629481,99.4380644 C119.629481,99.4380644 120.652019,101.256528 120.652019,101.821207" id="Fill-127" fill="#009CDE"></path>
                <path d="M146.498414,135.61532 C145.61209,136.671095 145.93454,137.825669 146.483325,138.49638 C147.03521,139.170811 148.111489,139.718128 149.330804,139.041423 L189.361082,116.810819 C190.579983,116.133701 190.684366,114.930555 190.403463,114.10586 C190.124006,113.285712 189.315195,112.400043 187.949537,112.595779 L164.387348,118.998019 L146.498414,135.61532 Z M148.211118,140.176361 C147.240048,140.176361 146.385143,139.68237 145.843386,139.019927 C145.030234,138.026159 144.727834,136.416659 145.884312,135.060976 C145.894647,135.048988 145.905809,135.037207 145.917384,135.026459 L163.662042,118.543093 L161.901591,115.373493 C159.54254,116.441877 156.709943,115.535332 155.431099,113.232179 C154.084251,110.807492 154.96148,107.738964 157.386467,106.392375 C158.561135,105.74006 159.919765,105.584008 161.211424,105.953364 C162.503497,106.32272 163.574196,107.173045 164.226536,108.347668 C164.337533,108.547331 164.265396,108.798873 164.065725,108.909659 C163.865847,109.020652 163.614709,108.948517 163.503711,108.749061 C162.958647,107.767487 162.063849,107.056885 160.984263,106.748296 C159.904469,106.440121 158.769487,106.569922 157.787669,107.114965 C155.761403,108.240602 155.02845,110.804598 156.153717,112.830993 C157.279191,114.856767 159.843493,115.589692 161.869346,114.464882 L161.869759,114.464882 C161.889602,114.45372 161.910065,114.444419 161.930735,114.436978 C161.931769,114.437185 161.931976,114.436772 161.932182,114.436358 C161.952439,114.429331 161.972695,114.423957 161.993365,114.419823 L161.993572,114.419823 L161.994192,114.419823 C162.129993,114.393987 162.269928,114.438425 162.366456,114.537223 L162.366663,114.53743 L162.366869,114.537843 C162.39188,114.563473 162.41379,114.592823 162.431773,114.62548 C162.432186,114.6261 162.432599,114.626514 162.432806,114.627134 L164.384867,118.141907 L187.756687,111.791339 C187.77219,111.787205 187.787899,111.783898 187.803608,111.781418 C189.56468,111.517061 190.772006,112.623889 191.186023,113.839229 C191.600041,115.05457 191.320377,116.668203 189.76249,117.53341 L149.732213,139.764013 C149.212573,140.05276 148.697273,140.176361 148.211118,140.176361 Z" id="Fill-128" fill="#0022AA"></path>
                <path d="M70.8729692,150.4266 C70.4041768,150.4266 69.9070668,150.311474 69.402929,150.04505 L36.6773788,132.743603 C36.475641,132.63695 36.3985424,132.386855 36.5051989,132.184918 C36.6118553,131.982981 36.8619606,131.906299 37.0639051,132.012538 L69.7892486,149.313985 C71.0222056,149.9663 72.0873233,149.396248 72.6247395,148.710655 C73.1594687,148.028783 73.4581481,146.867802 72.550328,145.830629 L54.3228218,129.585371 L30.6335127,123.669887 C29.2645481,123.504535 28.4739261,124.404259 28.2114189,125.229987 C27.9476716,126.060263 28.0768582,127.261342 29.3094017,127.912831 L33.0562266,129.894167 C33.2581711,130.000819 33.3352697,130.250915 33.2284065,130.452645 C33.1215433,130.654581 32.8716448,130.731884 32.6697003,130.624818 L28.9228754,128.643689 C27.3474189,127.810932 27.034684,126.2035 27.423484,124.979685 C27.812284,123.756077 28.9954266,122.622379 30.7626993,122.852839 C30.7786151,122.854906 30.7943242,122.8578 30.8098266,122.861727 L54.3077328,128.729259 L56.0024544,125.524315 C54.9972792,124.884194 54.2591587,123.918536 53.9040505,122.767063 C53.5082228,121.483101 53.6361692,120.121837 54.2641194,118.933986 C55.5607395,116.482223 58.6099567,115.541781 61.0624352,116.837937 C63.5145003,118.134714 64.4547721,121.184226 63.1583587,123.636197 C63.0517022,123.83772 62.8015969,123.915022 62.5998591,123.808576 C62.3979146,123.701717 62.3208161,123.451622 62.4274725,123.249892 C63.5107797,121.200762 62.7251185,118.652267 60.6759089,117.569002 C58.626906,116.485737 56.0787261,117.271367 54.9952122,119.320291 C54.4704046,120.313026 54.3633347,121.450651 54.6942591,122.523581 C55.0249768,123.595892 55.7531759,124.475567 56.7451223,125.000354 C56.7455357,125.000561 56.7461558,125.000768 56.7465692,125.000974 C56.8344161,125.047686 56.8986993,125.121062 56.9342515,125.206218 L56.9344582,125.206218 C56.9344582,125.206425 56.9348716,125.207045 56.9348716,125.207458 C56.9348716,125.207872 56.9350783,125.208078 56.935285,125.208492 C56.9356984,125.208905 56.9356984,125.209318 56.9359051,125.209732 C56.9363185,125.210352 56.9363185,125.210765 56.9363185,125.210972 C56.9365252,125.211385 56.9367319,125.211799 56.9367319,125.212212 C56.9369386,125.212212 56.9369386,125.212212 56.9369386,125.212419 C56.9807587,125.321138 56.9778649,125.447839 56.9187491,125.559659 C56.9185424,125.560279 56.918129,125.560899 56.9177156,125.561726 L55.0386189,129.115977 L73.1189558,145.22978 C73.1307376,145.240527 73.142106,145.251895 73.1526477,145.263677 C74.3370304,146.595177 74.0677022,148.210464 73.2752199,149.220974 C72.7365634,149.907807 71.8684295,150.4266 70.8729692,150.4266" id="Fill-129" fill="#0022AA"></path>
            </g>
        </g>
    </g>
</svg>
