<svg id="Layer_1" data-name="Layer 1" xmlns="http://www.w3.org/2000/svg" viewBox="0 0 200 134"><title>Artboard 1</title><path id="_Path_" data-name="&lt;Path&gt;" d="M104.71,54.35c-8.53.29-25.8,1.4-35.92,1.55C52.21,62.64,41.71,69.77,42.5,76.48c.1.19.19.38.31.57,3.52,5.83,42.33,2.63,63,1.24,31.79-7.89,55.51-14.58,58-18.28,0-.09.11-.18.15-.27,2.23-5.16-5.48-6.55-20.32-6.55C133.62,53.19,120.35,53.82,104.71,54.35Z" style="fill:#784311"/><path id="_Path_2" data-name="&lt;Path&gt;" d="M101.15,79.45c-28.27,7-50.83,11.25-49.44,14.29l5.69,13.57c3.55,7.31,92.67-18.07,98.07-27.14,1.78-3,6-13.94,8.48-20.43C162.47,63.55,136.08,70.85,101.15,79.45Z" style="fill:#b68150"/><path id="_Path_3" data-name="&lt;Path&gt;" d="M86.7,106.43c16.27.67,36,2.25,45.68,6.06,5.52-2.27,9.78-4.81,11.86-7.62,1.86-5-10.94-7.58-23-9.64C107.92,99.5,93,103.53,80.88,106Z" style="fill:#784311"/><path id="_Path_4" data-name="&lt;Path&gt;" d="M181.54,15.62l7.18,12C128.29,35.25,40.25,57.5,42.5,76.48L33.37,54.33C26.31,34,122,8.48,191,1.57Z" style="fill:#b68150"/><path id="_Path_5" data-name="&lt;Path&gt;" d="M65.81,124.45c6.34,6,38.48,14.45,62.77,2.86,5.52-2.62,8.09-4.67,9-6.56l6.67-15.88C134.36,118.22,75.08,125.61,65.81,124.45Z" style="fill:#b68150"/></svg>