<?xml version="1.0" encoding="UTF-8"?>
<svg width="240px" height="180px" viewBox="0 0 240 180" version="1.1" xmlns="http://www.w3.org/2000/svg" xmlns:xlink="http://www.w3.org/1999/xlink">
    <!-- Generator: Sketch 50 (54983) - http://www.bohemiancoding.com/sketch -->
    <title>Illo/Empty error </title>
    <desc>Created with Sketch.</desc>
    <defs>
        <polygon id="path-1" points="0 0.033132497 46.9653451 0.033132497 46.9653451 11.2781325 0 11.2781325"></polygon>
        <polygon id="path-3" points="0.0566560766 0.123022222 47.0220838 0.123022222 47.0220838 11.3679809 0.0566560766 11.3679809"></polygon>
    </defs>
    <g id="Invision" stroke="none" stroke-width="1" fill="none" fill-rule="evenodd">
        <g id="XLarge-1280_Check-your-email" transform="translate(-520.000000, -120.000000)">
            <rect id="Rectangle-Copy" fill="#FFFFFF" x="0" y="0" width="1280" height="632"></rect>
            <g id="Illo/check-email" transform="translate(532.000000, 124.000000)">
                <path d="M106.170284,35.0809689 L17.077208,35.0809689 C13.847543,35.0809689 11.2051085,32.4386368 11.2051085,29.2090968 L11.2051085,26.8544779 C11.2051085,23.6249379 13.847543,20.9826057 17.077208,20.9826057 L106.170284,20.9826057 C109.399949,20.9826057 112.042383,23.6249379 112.042383,26.8544779 L112.042383,29.2090968 C112.042383,32.4386368 109.399949,35.0809689 106.170284,35.0809689" id="Fill-1" fill="#E6EAF7"></path>
                <path d="M113.464387,16.1153944 L77.7443943,16.1153944 C74.651977,16.1153944 72.1215732,13.5852952 72.1215732,10.492791 C72.1215732,7.40049355 74.651977,4.87039438 77.7443943,4.87039438 L113.464387,4.87039438 C116.556804,4.87039438 119.087001,7.40049355 119.087001,10.492791 C119.087001,13.5852952 116.556804,16.1153944 113.464387,16.1153944" id="Fill-3" fill="#E6EAF7"></path>
                <path d="M120.147985,50.6897441 L84.4279923,50.6897441 C81.3355751,50.6897441 78.8051713,48.1596449 78.8051713,45.0671407 C78.8051713,41.9748432 81.3355751,39.4447441 84.4279923,39.4447441 L120.147985,39.4447441 C123.240402,39.4447441 125.770599,41.9748432 125.770599,45.0671407 C125.770599,48.1596449 123.240402,50.6897441 120.147985,50.6897441" id="Fill-5" fill="#E6EAF7"></path>
                <path d="M101.384736,39.8921671 C99.6433011,39.8921671 98.2315499,38.8153093 98.2315499,37.4864957 C98.2315499,36.1578888 99.6433011,35.0810309 101.384736,35.0810309 L87.62688,35.0810309 C89.3683154,35.0810309 90.7800666,36.1578888 90.7800666,37.4864957 C90.7800666,38.8153093 89.3683154,39.8921671 87.62688,39.8921671 L101.384736,39.8921671 Z" id="Fill-7" fill="#E6EAF7"></path>
                <path d="M105.841468,21.1376237 C104.02376,21.1376237 102.55,20.0134337 102.55,18.62654 C102.55,17.2396464 104.02376,16.1154564 105.841468,16.1154564 L91.4804647,16.1154564 C93.2981719,16.1154564 94.7719326,17.2396464 94.7719326,18.62654 C94.7719326,20.0134337 93.2981719,21.1376237 91.4804647,21.1376237 L105.841468,21.1376237 Z" id="Fill-9" fill="#E6EAF7"></path>
                <path d="M19.6003361,107.535084 L108.693412,107.535084 C111.923077,107.535084 114.565511,110.177417 114.565511,113.40675 L114.565511,115.761576 C114.565511,118.991116 111.923077,121.633241 108.693412,121.633241 L19.6003361,121.633241 C16.370671,121.633241 13.7284433,118.991116 13.7284433,115.761576 L13.7284433,113.40675 C13.7284433,110.177417 16.370671,107.535084 19.6003361,107.535084" id="Fill-11" fill="#E6EAF7"></path>
                <path d="M12.3062331,126.500556 L48.0262255,126.500556 C51.1186427,126.500556 53.6490465,129.030655 53.6490465,132.123159 C53.6490465,135.215457 51.1186427,137.745556 48.0262255,137.745556 L12.3062331,137.745556 C9.21381589,137.745556 6.68361876,135.215457 6.68361876,132.123159 C6.68361876,129.030655 9.21381589,126.500556 12.3062331,126.500556" id="Fill-13" fill="#E6EAF7"></path>
                <g id="Group-17" stroke-width="1" transform="translate(0.000000, 91.893177)">
                    <mask id="mask-2" fill="white">
                        <use xlink:href="#path-1"></use>
                    </mask>
                    <g id="Clip-16"></g>
                    <path d="M5.62273837,0.033132497 L41.3427307,0.033132497 C44.4351479,0.033132497 46.9653451,2.56323166 46.9653451,5.65552915 C46.9653451,8.74803333 44.4351479,11.2781325 41.3427307,11.2781325 L5.62273837,11.2781325 C2.53032115,11.2781325 -8.26794258e-05,8.74803333 -8.26794258e-05,5.65552915 C-8.26794258e-05,2.56323166 2.53032115,0.033132497 5.62273837,0.033132497" id="Fill-15" fill="#E6EAF7" mask="url(#mask-2)"></path>
                </g>
                <path d="M24.3858833,102.72368 C26.1273187,102.72368 27.5390699,103.800744 27.5390699,105.129558 C27.5390699,106.457958 26.1273187,107.535022 24.3858833,107.535022 L38.1437397,107.535022 C36.4023043,107.535022 34.9905531,106.457958 34.9905531,105.129558 C34.9905531,103.800744 36.4023043,102.72368 38.1437397,102.72368 L24.3858833,102.72368 Z" id="Fill-18" fill="#E6EAF7"></path>
                <path d="M19.9291522,121.478409 C21.7468593,121.478409 23.2206201,122.602599 23.2206201,123.989286 C23.2206201,125.37618 21.7468593,126.500576 19.9291522,126.500576 L34.290155,126.500576 C32.4724478,126.500576 30.9986871,125.37618 30.9986871,123.989286 C30.9986871,122.602599 32.4724478,121.478409 34.290155,121.478409 L19.9291522,121.478409 Z" id="Fill-20" fill="#E6EAF7"></path>
                <path d="M120.985279,54.9542458 L210.078355,54.9542458 C213.30802,54.9542458 215.950454,57.5965779 215.950454,60.8261179 L215.950454,63.1807368 C215.950454,66.4102768 213.30802,69.0524023 210.078355,69.0524023 L120.985279,69.0524023 C117.755821,69.0524023 115.113386,66.4102768 115.113386,63.1807368 L115.113386,60.8261179 C115.113386,57.5965779 117.755821,54.9542458 120.985279,54.9542458" id="Fill-22" fill="#E6EAF7"></path>
                <path d="M113.69128,73.919717 L149.411272,73.919717 C152.503689,73.919717 155.034093,76.4498161 155.034093,79.5423203 C155.034093,82.6346178 152.503689,85.164717 149.411272,85.164717 L113.69128,85.164717 C110.598656,85.164717 108.068459,82.6346178 108.068459,79.5423203 C108.068459,76.4498161 110.598656,73.919717 113.69128,73.919717" id="Fill-24" fill="#E6EAF7"></path>
                <path d="M107.007682,39.3454706 L142.727674,39.3454706 C145.820091,39.3454706 148.350495,41.8755698 148.350495,44.968074 C148.350495,48.0603714 145.820091,50.5904706 142.727674,50.5904706 L107.007682,50.5904706 C103.915264,50.5904706 101.385067,48.0603714 101.385067,44.968074 C101.385067,41.8755698 103.915264,39.3454706 107.007682,39.3454706" id="Fill-26" fill="#E6EAF7"></path>
                <path d="M125.770826,50.1429235 C127.512469,50.1429235 128.92422,51.2199881 128.92422,52.548595 C128.92422,53.8772019 127.512469,54.9542664 125.770826,54.9542664 L139.52889,54.9542664 C137.787247,54.9542664 136.375703,53.8772019 136.375703,52.548595 C136.375703,51.2199881 137.787247,50.1429235 139.52889,50.1429235 L125.770826,50.1429235 Z" id="Fill-28" fill="#E6EAF7"></path>
                <path d="M121.314095,68.897467 C123.132009,68.897467 124.60577,70.021657 124.60577,71.4085507 C124.60577,72.7954443 123.132009,73.9196343 121.314095,73.9196343 L135.675305,73.9196343 C133.857391,73.9196343 132.383837,72.7954443 132.383837,71.4085507 C132.383837,70.021657 133.857391,68.897467 135.675305,68.897467 L121.314095,68.897467 Z" id="Fill-30" fill="#E6EAF7"></path>
                <path d="M185.959671,157.307143 L96.8663885,157.307143 C93.6369301,157.307143 90.9944957,154.664811 90.9944957,151.435271 L90.9944957,149.080652 C90.9944957,145.851112 93.6369301,143.20878 96.8663885,143.20878 L185.959671,143.20878 C189.189129,143.20878 191.831564,145.851112 191.831564,149.080652 L191.831564,151.435271 C191.831564,154.664811 189.189129,157.307143 185.959671,157.307143" id="Fill-32" fill="#E6EAF7"></path>
                <path d="M193.25367,138.341672 L157.533678,138.341672 C154.441261,138.341672 151.910857,135.811573 151.910857,132.719069 C151.910857,129.626771 154.441261,127.096672 157.533678,127.096672 L193.25367,127.096672 C196.346294,127.096672 198.876491,129.626771 198.876491,132.719069 C198.876491,135.811573 196.346294,138.341672 193.25367,138.341672" id="Fill-34" fill="#E6EAF7"></path>
                <g id="Group-38" stroke-width="1" transform="translate(158.537799, 161.547896)">
                    <mask id="mask-4" fill="white">
                        <use xlink:href="#path-3"></use>
                    </mask>
                    <g id="Clip-37"></g>
                    <path d="M41.3994695,11.3680222 L5.67947713,11.3680222 C2.5870599,11.3680222 0.0566560766,8.83792306 0.0566560766,5.74541888 C0.0566560766,2.65312139 2.5870599,0.123022222 5.67947713,0.123022222 L41.3994695,0.123022222 C44.4918867,0.123022222 47.0220838,2.65312139 47.0220838,5.74541888 C47.0220838,8.83792306 44.4918867,11.3680222 41.3994695,11.3680222" id="Fill-36" fill="#E6EAF7" mask="url(#mask-4)"></path>
                </g>
                <path d="M181.174124,162.118341 C179.432482,162.118341 178.020937,161.041277 178.020937,159.71267 C178.020937,158.38427 179.432482,157.307205 181.174124,157.307205 L167.41606,157.307205 C169.157703,157.307205 170.569454,158.38427 170.569454,159.71267 C170.569454,161.041277 169.157703,162.118341 167.41606,162.118341 L181.174124,162.118341 Z" id="Fill-39" fill="#E6EAF7"></path>
                <path d="M185.630855,143.363798 C183.812941,143.363798 182.339387,142.239608 182.339387,140.852714 C182.339387,139.466027 183.812941,138.341631 185.630855,138.341631 L171.269645,138.341631 C173.087559,138.341631 174.561113,139.466027 174.561113,140.852714 C174.561113,142.239608 173.087559,143.363798 171.269645,143.363798 L185.630855,143.363798 Z" id="Fill-41" fill="#E6EAF7"></path>
                <path d="M111.385288,69.5840517 L22.2922128,69.5840517 C19.0625478,69.5840517 16.4201133,66.9417196 16.4201133,63.7121796 L16.4201133,61.3575607 C16.4201133,58.1280207 19.0625478,55.4858952 22.2922128,55.4858952 L111.385288,55.4858952 C114.614953,55.4858952 117.257181,58.1280207 117.257181,61.3575607 L117.257181,63.7121796 C117.257181,66.9417196 114.614953,69.5840517 111.385288,69.5840517" id="Fill-43" fill="#E6EAF7"></path>
                <path d="M118.679288,50.6184772 L82.9592957,50.6184772 C79.8668785,50.6184772 77.3366813,48.088378 77.3366813,44.9958738 C77.3366813,41.9035763 79.8668785,39.3734772 82.9592957,39.3734772 L118.679288,39.3734772 C121.771912,39.3734772 124.302109,41.9035763 124.302109,44.9958738 C124.302109,48.088378 121.771912,50.6184772 118.679288,50.6184772" id="Fill-45" fill="#E6EAF7"></path>
                <path d="M125.362886,85.1928269 L89.6428938,85.1928269 C86.5504766,85.1928269 84.0202794,82.6627277 84.0202794,79.5702235 C84.0202794,76.477926 86.5504766,73.9478269 89.6428938,73.9478269 L125.362886,73.9478269 C128.45551,73.9478269 130.9855,76.477926 130.9855,79.5702235 C130.9855,82.6627277 128.45551,85.1928269 125.362886,85.1928269" id="Fill-47" fill="#E6EAF7"></path>
                <path d="M106.599741,74.3953533 C104.858306,74.3953533 103.446555,73.3182888 103.446555,71.9896818 C103.446555,70.6610749 104.858306,69.5840104 106.599741,69.5840104 L92.8418848,69.5840104 C94.5833202,69.5840104 95.9950714,70.6610749 95.9950714,71.9896818 C95.9950714,73.3182888 94.5833202,74.3953533 92.8418848,74.3953533 L106.599741,74.3953533 Z" id="Fill-49" fill="#E6EAF7"></path>
                <path d="M111.056472,55.6407271 C109.238765,55.6407271 107.765004,54.5165372 107.765004,53.1296435 C107.765004,51.7427498 109.238765,50.6185599 111.056472,50.6185599 L96.6954695,50.6185599 C98.5131767,50.6185599 99.9869374,51.7427498 99.9869374,53.1296435 C99.9869374,54.5165372 98.5131767,55.6407271 96.6954695,55.6407271 L111.056472,55.6407271 Z" id="Fill-51" fill="#E6EAF7"></path>
                <path d="M77.5395146,98.0351935 L166.632797,98.0351935 C169.862255,98.0351935 172.50469,100.677526 172.50469,103.907066 L172.50469,106.261685 C172.50469,109.491225 169.862255,112.133557 166.632797,112.133557 L77.5395146,112.133557 C74.3098496,112.133557 71.6676218,109.491225 71.6676218,106.261685 L71.6676218,103.907066 C71.6676218,100.677526 74.3098496,98.0351935 77.5395146,98.0351935" id="Fill-53" fill="#E6EAF7"></path>
                <path d="M70.2454117,117.000665 L105.965404,117.000665 C109.057821,117.000665 111.588225,119.530764 111.588225,122.623268 C111.588225,125.715566 109.057821,128.245665 105.965404,128.245665 L70.2454117,128.245665 C67.1529944,128.245665 64.6225906,125.715566 64.6225906,122.623268 C64.6225906,119.530764 67.1529944,117.000665 70.2454117,117.000665" id="Fill-55" fill="#E6EAF7"></path>
                <path d="M63.5619169,82.4265217 L99.2819093,82.4265217 C102.374327,82.4265217 104.904524,84.9566209 104.904524,88.0489184 L104.904524,88.0491251 C104.904524,91.1414226 102.374327,93.6715217 99.2819093,93.6715217 L63.5619169,93.6715217 C60.4694997,93.6715217 57.9390959,91.1414226 57.9390959,88.0491251 L57.9390959,88.0489184 C57.9390959,84.9566209 60.4694997,82.4265217 63.5619169,82.4265217" id="Fill-57" fill="#E6EAF7"></path>
                <path d="M82.3250618,93.2239747 C84.0664972,93.2239747 85.4782484,94.3010392 85.4782484,95.6296461 C85.4782484,96.9580464 84.0664972,98.0351109 82.3250618,98.0351109 L96.0829183,98.0351109 C94.3414829,98.0351109 92.9297317,96.9580464 92.9297317,95.6296461 C92.9297317,94.3010392 94.3414829,93.2239747 96.0829183,93.2239747 L82.3250618,93.2239747 Z" id="Fill-59" fill="#E6EAF7"></path>
                <path d="M77.8683307,111.978518 C79.6860379,111.978518 81.1597987,113.102708 81.1597987,114.489602 C81.1597987,115.876495 79.6860379,117.000685 77.8683307,117.000685 L92.2293336,117.000685 C90.4116264,117.000685 88.9378656,115.876495 88.9378656,114.489602 C88.9378656,113.102708 90.4116264,111.978518 92.2293336,111.978518 L77.8683307,111.978518 Z" id="Fill-61" fill="#E6EAF7"></path>
                <polygon id="Fill-64" fill="#F1A882" points="174.966697 27.287474 171.724423 28.1485468 173.013396 25.0514955 171.192588 22.2340964 174.536351 22.5027941 176.653151 19.90056 177.430957 23.1635839 180.560167 24.3727237 177.696978 26.120499 177.513843 29.4701263"></polygon>
                <polygon id="Fill-65" fill="#8CA1D8" points="105.550002 3.07224851 106.790193 3.07224851 106.790193 0 105.550002 0"></polygon>
                <polygon id="Fill-66" fill="#8CA1D8" points="105.550002 9.29446117 106.790193 9.29446117 106.790193 6.22241935 105.550002 6.22241935"></polygon>
                <polygon id="Fill-67" fill="#8CA1D8" points="101.504084 5.24766667 104.576245 5.24766667 104.576245 4.0075233 101.504084 4.0075233"></polygon>
                <polygon id="Fill-68" fill="#8CA1D8" points="107.726331 5.24766667 110.798492 5.24766667 110.798492 4.0075233 107.726331 4.0075233"></polygon>
                <polygon id="Fill-69" fill="#F1A882" points="37.4366653 46.7817836 35.3864222 49.4367239 34.5261428 46.1945757 31.367582 45.0652185 34.1852968 43.2451014 34.2834787 39.8921671 36.8851935 42.0095053 40.1045236 41.0667896 38.8945102 44.1954646 40.7860088 46.9657382"></polygon>
                <polygon id="Fill-69-Copy" fill="#F1A882" points="145.590614 126.15007 143.540371 128.805011 142.680092 125.562863 139.521531 124.433505 142.339246 122.613388 142.437428 119.260454 145.039143 121.377792 148.258473 120.435076 147.048459 123.563751 148.939958 126.334025"></polygon>
                <polygon id="Fill-70" fill="#F1A882" points="31.6219866 147.001841 32.862178 147.001841 32.862178 143.929799 31.6219866 143.929799"></polygon>
                <polygon id="Fill-71" fill="#F1A882" points="31.6219866 153.224054 32.862178 153.224054 32.862178 150.152012 31.6219866 150.152012"></polygon>
                <polygon id="Fill-72" fill="#F1A882" points="27.5758622 149.177466 30.648023 149.177466 30.648023 147.937323 27.5758622 147.937323"></polygon>
                <polygon id="Fill-73" fill="#F1A882" points="33.7983158 149.177466 36.8704766 149.177466 36.8704766 147.937323 33.7983158 147.937323"></polygon>
                <polygon id="Fill-74" fill="#919FD5" points="129.075792 166.192212 125.833725 167.053285 127.12249 163.956234 125.301683 161.139041 128.645445 161.407532 130.762245 158.805505 131.540259 162.068322 134.669262 163.277462 131.806073 165.025444 131.623145 168.374865"></polygon>
                <path d="M127.641407,19.8595319 C126.237097,19.8595319 125.094467,21.0021173 125.094467,22.406373 C125.094467,23.8108354 126.237097,24.9534208 127.641407,24.9534208 C129.045924,24.9534208 130.188347,23.8108354 130.188347,22.406373 C130.188347,21.0021173 129.045924,19.8595319 127.641407,19.8595319 M127.641407,26.6069453 C125.32535,26.6069453 123.440879,24.7225474 123.440879,22.406373 C123.440879,20.0904053 125.32535,18.2060074 127.641407,18.2060074 C129.957671,18.2060074 131.841935,20.0904053 131.841935,22.406373 C131.841935,24.7225474 129.957671,26.6069453 127.641407,26.6069453" id="Fill-75" fill="#CAD4EF"></path>
                <path d="M189.764619,80.9618297 C188.360103,80.9618297 187.21768,82.1044152 187.21768,83.5088775 C187.21768,84.9131332 188.360103,86.0557186 189.764619,86.0557186 C191.169136,86.0557186 192.311559,84.9131332 192.311559,83.5088775 C192.311559,82.1044152 191.169136,80.9618297 189.764619,80.9618297 M189.764619,87.7092431 C187.448355,87.7092431 185.564091,85.8248453 185.564091,83.5088775 C185.564091,81.1927031 187.448355,79.3083053 189.764619,79.3083053 C192.080883,79.3083053 193.965148,81.1927031 193.965148,83.5088775 C193.965148,85.8248453 192.080883,87.7092431 189.764619,87.7092431" id="Fill-77" fill="#CAD4EF"></path>
                <path d="M83.9861742,135.175627 C82.5816574,135.175627 81.4392344,136.318213 81.4392344,137.722675 C81.4392344,139.126931 82.5816574,140.269516 83.9861742,140.269516 C85.3906909,140.269516 86.5331139,139.126931 86.5331139,137.722675 C86.5331139,136.318213 85.3906909,135.175627 83.9861742,135.175627 M83.9861742,141.923041 C81.66991,141.923041 79.7856459,140.038643 79.7856459,137.722675 C79.7856459,135.406501 81.66991,133.522103 83.9861742,133.522103 C86.3024383,133.522103 88.1867024,135.406501 88.1867024,137.722675 C88.1867024,140.038643 86.3024383,141.923041 83.9861742,141.923041" id="Fill-77-Copy" fill="#CAD4EF"></path>
                <g id="sprinkle" stroke-width="1" transform="translate(152.956938, 85.156718)" fill="#FFAA81">
                    <polygon id="Fill-79" points="4.05625263 3.21155795 5.29644402 3.21155795 5.29644402 0.139516129 4.05625263 0.139516129"></polygon>
                    <polygon id="Fill-81" points="4.05625263 9.43377061 5.29644402 9.43377061 5.29644402 6.36172879 4.05625263 6.36172879"></polygon>
                    <polygon id="Fill-82" points="0.0101282297 5.3871828 3.0820823 5.3871828 3.0820823 4.14703943 0.0101282297 4.14703943"></polygon>
                    <polygon id="Fill-83" points="6.23237512 5.3871828 9.30453589 5.3871828 9.30453589 4.14703943 6.23237512 4.14703943"></polygon>
                </g>
                <polygon id="Fill-84" fill="#8CA1D8" points="40.6303234 79.3867443 41.8705148 79.3867443 41.8705148 76.3147025 40.6303234 76.3147025"></polygon>
                <polygon id="Fill-85" fill="#8CA1D8" points="40.6303234 85.608957 41.8705148 85.608957 41.8705148 82.5369152 40.6303234 82.5369152"></polygon>
                <polygon id="Fill-86" fill="#8CA1D8" points="36.584199 81.5621625 39.6563598 81.5621625 39.6563598 80.3220191 36.584199 80.3220191"></polygon>
                <polygon id="Fill-87" fill="#8CA1D8" points="42.8064459 81.5621625 45.8786067 81.5621625 45.8786067 80.3220191 42.8064459 80.3220191"></polygon>
                <polygon id="Fill-88" fill="#919FD5" points="61.1704559 13.0949632 57.9281822 13.9560361 59.2169478 10.8589847 57.3963468 8.04179235 60.7399028 8.31028339 62.8569095 5.70825591 63.6347162 8.97107312 66.763719 10.1802129 63.9005305 11.928195 63.7176023 15.2776155"></polygon>
                <polygon id="Fill-89" fill="#8CA1D8" points="157.225263 46.0229606 158.465455 46.0229606 158.465455 42.9509188 157.225263 42.9509188"></polygon>
                <polygon id="Fill-90" fill="#8CA1D8" points="157.225263 52.2451732 158.465455 52.2451732 158.465455 49.1731314 157.225263 49.1731314"></polygon>
                <polygon id="Fill-91" fill="#8CA1D8" points="153.179345 48.1983787 156.2513 48.1983787 156.2513 46.9582354 153.179345 46.9582354"></polygon>
                <polygon id="Fill-92" fill="#8CA1D8" points="159.401799 48.1983787 162.473753 48.1983787 162.473753 46.9582354 159.401799 46.9582354"></polygon>
                <g id="paper-plane" stroke-width="1" transform="translate(114.614354, 85.569892) rotate(-14.000000) translate(-114.614354, -85.569892) translate(80.612440, 58.493429)">
                    <path d="M18.0691669,18.7616643 C18.1088116,18.7616643 18.148167,18.763686 18.1878118,18.768307 L64.3326049,24.8883098 L1.49330618,1.44659075 L17.9554413,18.7677294 C17.9930604,18.763686 18.030969,18.7616643 18.0691669,18.7616643 Z M18.1059179,19.922703 L7.3977747,30.3636762 L17.2013223,25.4647858 L17.9065364,25.2851425 L58.5693529,25.2894747 L18.1059179,19.922703 Z M18.908363,30.7535773 L21.2190463,52.6691947 L65.741297,26.4453148 L18.0518042,26.4404049 L17.6081877,26.5536207 L4.76154121,32.9731253 C4.69295862,33.0074943 4.6209035,33.0280002 4.54884838,33.0352206 L4.65533948,33.1155113 L18.908363,30.7535773 Z M21.1773758,54.0292274 L20.1749705,53.5518152 L20.0893146,52.9892024 L17.8859906,32.0939705 L4.74909795,34.2710626 C4.39113738,34.3285369 4.03578121,34.1948153 3.80948762,33.9241951 C3.71949106,33.8499694 3.63759709,33.759859 3.56438446,33.6550189 C3.33780149,33.3332783 3.25909068,33.056593 3.25909068,32.8272734 C3.2588013,32.4714525 3.44805451,32.2308691 3.56554197,32.1156317 L16.7814348,19.2110614 L0.311197091,1.88154706 C0.120786373,1.68082021 0.0232659904,1.42406313 0.0235553684,1.16528435 C0.0238447464,0.965423944 0.0820097225,0.764408278 0.200654699,0.587075493 C0.473827522,0.179556666 0.984290297,0.0181087388 1.44121814,0.193708631 L67.250982,24.7436132 C67.6115469,24.8758908 67.9220495,25.2395096 67.9223389,25.7195212 C67.9223389,25.8104981 67.9113425,25.9055184 67.8873242,26.0040046 C67.8534669,26.1443689 67.7970382,26.2720254 67.7191956,26.3846635 C67.629199,26.592322 67.4758287,26.7656113 67.2790516,26.8811376 L21.6496407,53.7571631 L21.1773758,54.0292274 Z M21.1773758,54.0292274 L20.1749705,53.5518152 L20.0893146,52.9892024 L17.8859906,32.0939705 L4.74909795,34.2710626 C4.39113738,34.3285369 4.03578121,34.1948153 3.80948762,33.9241951 C3.71949106,33.8499694 3.63759709,33.759859 3.56438446,33.6550189 C3.33780149,33.3332783 3.25909068,33.056593 3.25909068,32.8272734 C3.2588013,32.4714525 3.44805451,32.2308691 3.56554197,32.1156317 L16.7814348,19.2110614 L0.311197091,1.88154706 C0.120786373,1.68082021 0.0232659904,1.42406313 0.0235553684,1.16528435 C0.0238447464,0.965423944 0.0820097225,0.764408278 0.200654699,0.587075493 C0.473827522,0.179556666 0.984290297,0.0181087388 1.44121814,0.193708631 L67.250982,24.7436132 C67.6115469,24.8758908 67.9220495,25.2395096 67.9223389,25.7195212 C67.9223389,25.8104981 67.9113425,25.9055184 67.8873242,26.0040046 C67.8534669,26.1443689 67.7970382,26.2720254 67.7191956,26.3846635 C67.629199,26.592322 67.4758287,26.7656113 67.2790516,26.8811376 L21.6496407,53.7571631 L21.1773758,54.0292274 Z" id="Fill-91" fill="#FFFFFF"></path>
                    <path d="M18.0691669,18.7616643 C18.1088116,18.7616643 18.148167,18.763686 18.1878118,18.768307 L64.3326049,24.8883098 L1.49330618,1.44659075 L17.9554413,18.7677294 C17.9930604,18.763686 18.030969,18.7616643 18.0691669,18.7616643 Z M18.1059179,19.922703 L7.3977747,30.3636762 L17.2013223,25.4647858 L17.9065364,25.2851425 L58.5693529,25.2894747 L18.1059179,19.922703 Z M18.908363,30.7535773 L21.2190463,52.6691947 L65.741297,26.4453148 L18.0518042,26.4404049 L17.6081877,26.5536207 L4.76154121,32.9731253 C4.69295862,33.0074943 4.6209035,33.0280002 4.54884838,33.0352206 L4.65533948,33.1155113 L18.908363,30.7535773 Z M21.1773758,54.0292274 L20.1749705,53.5518152 L20.0893146,52.9892024 L17.8859906,32.0939705 L4.74909795,34.2710626 C4.39113738,34.3285369 4.03578121,34.1948153 3.80948762,33.9241951 C3.71949106,33.8499694 3.63759709,33.759859 3.56438446,33.6550189 C3.33780149,33.3332783 3.25909068,33.056593 3.25909068,32.8272734 C3.2588013,32.4714525 3.44805451,32.2308691 3.56554197,32.1156317 L16.7814348,19.2110614 L0.311197091,1.88154706 C0.120786373,1.68082021 0.0232659904,1.42406313 0.0235553684,1.16528435 C0.0238447464,0.965423944 0.0820097225,0.764408278 0.200654699,0.587075493 C0.473827522,0.179556666 0.984290297,0.0181087388 1.44121814,0.193708631 L67.250982,24.7436132 C67.6115469,24.8758908 67.9220495,25.2395096 67.9223389,25.7195212 C67.9223389,25.8104981 67.9113425,25.9055184 67.8873242,26.0040046 C67.8534669,26.1443689 67.7970382,26.2720254 67.7191956,26.3846635 C67.629199,26.592322 67.4758287,26.7656113 67.2790516,26.8811376 L21.6496407,53.7571631 L21.1773758,54.0292274 Z" id="Fill-91-Copy" fill="#0022AA"></path>
                    <g id="Badeg-one" transform="translate(23.728995, 28.881561)">
                        <path d="M11.7288159,4.88301731 C12.9594943,8.48000528 11.4268513,12.2482721 8.30531173,13.299906 C5.18390483,14.3515398 1.65572131,12.2882942 0.425042926,8.69130627 C-0.80563546,5.0943183 0.72714024,1.32605146 3.84854714,0.274417611 C6.97008671,-0.777216234 10.4982702,1.28616099 11.7288159,4.88301731" id="Fill-28" fill="#E35205"></path>
                        <polygon id="Fill-30" fill="#FFFFFF" points="8.39196172 9.96477204 7.03250369 10.397362 5.21577217 4.87338725 3.80971734 5.3209448 3.47253589 4.29619971 6.15952704 3.17697172"></polygon>
                    </g>
                </g>
            </g>
        </g>
    </g>
</svg>